<mxfile host="app.diagrams.net" modified="2023-07-21T02:08:03.167Z" agent="Mozilla/5.0 (Macintosh; Intel Mac OS X 10_15_7) AppleWebKit/537.36 (KHTML, like Gecko) Chrome/114.0.0.0 Safari/537.36" etag="xj2XuAy7pdIQbi0osb6H" version="21.6.1" type="github">
  <diagram name="第 1 页" id="PTcxKqWH0xkM7muXZV0k">
    <mxGraphModel dx="1194" dy="656" grid="1" gridSize="10" guides="1" tooltips="1" connect="1" arrows="1" fold="1" page="1" pageScale="1" pageWidth="827" pageHeight="1169" math="0" shadow="0">
      <root>
        <mxCell id="0" />
        <mxCell id="1" parent="0" />
        <mxCell id="2fL33ab8OKWXe1lgJidz-1" value="server" style="rounded=0;whiteSpace=wrap;html=1;" vertex="1" parent="1">
          <mxGeometry x="340" y="210" width="120" height="60" as="geometry" />
        </mxCell>
        <mxCell id="2fL33ab8OKWXe1lgJidz-2" value="consumer" style="rounded=0;whiteSpace=wrap;html=1;" vertex="1" parent="1">
          <mxGeometry x="120" y="450" width="120" height="60" as="geometry" />
        </mxCell>
        <mxCell id="2fL33ab8OKWXe1lgJidz-3" value="provider" style="rounded=0;whiteSpace=wrap;html=1;" vertex="1" parent="1">
          <mxGeometry x="530" y="428" width="120" height="60" as="geometry" />
        </mxCell>
        <mxCell id="2fL33ab8OKWXe1lgJidz-4" value="" style="endArrow=classic;html=1;rounded=0;" edge="1" parent="1">
          <mxGeometry width="50" height="50" relative="1" as="geometry">
            <mxPoint x="600" y="400" as="sourcePoint" />
            <mxPoint x="480" y="260" as="targetPoint" />
          </mxGeometry>
        </mxCell>
        <mxCell id="2fL33ab8OKWXe1lgJidz-5" value="1、注册" style="text;html=1;align=center;verticalAlign=middle;resizable=0;points=[];autosize=1;strokeColor=none;fillColor=none;" vertex="1" parent="1">
          <mxGeometry x="485" y="278" width="70" height="30" as="geometry" />
        </mxCell>
        <mxCell id="2fL33ab8OKWXe1lgJidz-6" value="" style="endArrow=classic;html=1;rounded=0;" edge="1" parent="1">
          <mxGeometry width="50" height="50" relative="1" as="geometry">
            <mxPoint x="170" y="440" as="sourcePoint" />
            <mxPoint x="330" y="240" as="targetPoint" />
          </mxGeometry>
        </mxCell>
        <mxCell id="2fL33ab8OKWXe1lgJidz-7" value="获取服务列表" style="text;html=1;align=center;verticalAlign=middle;resizable=0;points=[];autosize=1;strokeColor=none;fillColor=none;" vertex="1" parent="1">
          <mxGeometry x="140" y="328" width="100" height="30" as="geometry" />
        </mxCell>
        <mxCell id="2fL33ab8OKWXe1lgJidz-8" value="" style="endArrow=classic;html=1;rounded=0;" edge="1" parent="1">
          <mxGeometry width="50" height="50" relative="1" as="geometry">
            <mxPoint x="260" y="460" as="sourcePoint" />
            <mxPoint x="500" y="450" as="targetPoint" />
          </mxGeometry>
        </mxCell>
        <mxCell id="2fL33ab8OKWXe1lgJidz-9" value="invoke" style="text;html=1;align=center;verticalAlign=middle;resizable=0;points=[];autosize=1;strokeColor=none;fillColor=none;" vertex="1" parent="1">
          <mxGeometry x="310" y="428" width="60" height="30" as="geometry" />
        </mxCell>
        <mxCell id="2fL33ab8OKWXe1lgJidz-10" value="socket" style="whiteSpace=wrap;html=1;" vertex="1" parent="1">
          <mxGeometry x="530" y="580" width="120" height="60" as="geometry" />
        </mxCell>
        <mxCell id="2fL33ab8OKWXe1lgJidz-11" value="socket" style="whiteSpace=wrap;html=1;" vertex="1" parent="1">
          <mxGeometry x="170" y="570" width="120" height="60" as="geometry" />
        </mxCell>
        <mxCell id="2fL33ab8OKWXe1lgJidz-12" value="proto" style="whiteSpace=wrap;html=1;" vertex="1" parent="1">
          <mxGeometry x="354" y="790" width="120" height="60" as="geometry" />
        </mxCell>
        <mxCell id="2fL33ab8OKWXe1lgJidz-15" style="edgeStyle=orthogonalEdgeStyle;rounded=0;orthogonalLoop=1;jettySize=auto;html=1;entryX=0;entryY=0.75;entryDx=0;entryDy=0;" edge="1" parent="1" source="2fL33ab8OKWXe1lgJidz-13" target="2fL33ab8OKWXe1lgJidz-12">
          <mxGeometry relative="1" as="geometry" />
        </mxCell>
        <mxCell id="2fL33ab8OKWXe1lgJidz-18" style="edgeStyle=orthogonalEdgeStyle;rounded=0;orthogonalLoop=1;jettySize=auto;html=1;entryX=0.658;entryY=1.033;entryDx=0;entryDy=0;entryPerimeter=0;" edge="1" parent="1" source="2fL33ab8OKWXe1lgJidz-13" target="2fL33ab8OKWXe1lgJidz-11">
          <mxGeometry relative="1" as="geometry" />
        </mxCell>
        <mxCell id="2fL33ab8OKWXe1lgJidz-13" value="clientstub" style="whiteSpace=wrap;html=1;" vertex="1" parent="1">
          <mxGeometry x="190" y="690" width="120" height="60" as="geometry" />
        </mxCell>
        <mxCell id="2fL33ab8OKWXe1lgJidz-16" style="edgeStyle=orthogonalEdgeStyle;rounded=0;orthogonalLoop=1;jettySize=auto;html=1;entryX=1;entryY=0.5;entryDx=0;entryDy=0;" edge="1" parent="1" source="2fL33ab8OKWXe1lgJidz-14" target="2fL33ab8OKWXe1lgJidz-12">
          <mxGeometry relative="1" as="geometry" />
        </mxCell>
        <mxCell id="2fL33ab8OKWXe1lgJidz-17" style="edgeStyle=orthogonalEdgeStyle;rounded=0;orthogonalLoop=1;jettySize=auto;html=1;entryX=0.5;entryY=1;entryDx=0;entryDy=0;" edge="1" parent="1" source="2fL33ab8OKWXe1lgJidz-14" target="2fL33ab8OKWXe1lgJidz-10">
          <mxGeometry relative="1" as="geometry" />
        </mxCell>
        <mxCell id="2fL33ab8OKWXe1lgJidz-14" value="servicestub" style="whiteSpace=wrap;html=1;" vertex="1" parent="1">
          <mxGeometry x="540" y="710" width="120" height="60" as="geometry" />
        </mxCell>
        <mxCell id="2fL33ab8OKWXe1lgJidz-19" value="" style="endArrow=classic;html=1;rounded=0;" edge="1" parent="1">
          <mxGeometry width="50" height="50" relative="1" as="geometry">
            <mxPoint x="300" y="600" as="sourcePoint" />
            <mxPoint x="510" y="590" as="targetPoint" />
          </mxGeometry>
        </mxCell>
        <mxCell id="2fL33ab8OKWXe1lgJidz-20" value="" style="endArrow=classic;html=1;rounded=0;" edge="1" parent="1">
          <mxGeometry width="50" height="50" relative="1" as="geometry">
            <mxPoint x="520" y="620" as="sourcePoint" />
            <mxPoint x="300" y="630" as="targetPoint" />
          </mxGeometry>
        </mxCell>
        <mxCell id="2fL33ab8OKWXe1lgJidz-21" value="" style="endArrow=classic;html=1;rounded=0;exitX=0.75;exitY=1;exitDx=0;exitDy=0;" edge="1" parent="1" source="2fL33ab8OKWXe1lgJidz-10">
          <mxGeometry width="50" height="50" relative="1" as="geometry">
            <mxPoint x="400" y="570" as="sourcePoint" />
            <mxPoint x="620" y="700" as="targetPoint" />
          </mxGeometry>
        </mxCell>
        <mxCell id="2fL33ab8OKWXe1lgJidz-22" value="解码找到对应&lt;br&gt;的本地方法调用" style="text;html=1;align=center;verticalAlign=middle;resizable=0;points=[];autosize=1;strokeColor=none;fillColor=none;" vertex="1" parent="1">
          <mxGeometry x="605" y="653" width="110" height="40" as="geometry" />
        </mxCell>
        <mxCell id="2fL33ab8OKWXe1lgJidz-23" value="编码，发送到指定的服务器" style="text;html=1;align=center;verticalAlign=middle;resizable=0;points=[];autosize=1;strokeColor=none;fillColor=none;" vertex="1" parent="1">
          <mxGeometry x="185" y="648" width="170" height="30" as="geometry" />
        </mxCell>
      </root>
    </mxGraphModel>
  </diagram>
</mxfile>
